# xmcd
#
# Track frame offsets: 
#        150
#        20842
#        36382
#        54307
#        67702
#        83745
#        102150
#        121142
#        139287
#        155870
#
# Disc length: 2264 seconds
#
# Revision: 1
# Processed by: cddbd v1.5.2PL0 Copyright (c) Steve Scherf et al.
# Submitted via: ExactAudioCopy v0.95b4
#
DISCID=8308d60a
DTITLE=แบงค์ บุญชัย - ทางตันวันแต่ง
DYEAR=2002
DGENRE=Country
TTITLE0=ทางตันวันแต่ง
TTITLE1=บ้านเกิด 101 
TTITLE2=เสียแฟนเพราะโฟร์วิล
TTITLE3=สาวชุดดำ
TTITLE4=แม่นยู้
TTITLE5=ดอกคูณบานสงกรานต์เศร้า
TTITLE6=เอิ้นน้องคืนบ้าน
TTITLE7=แพ้เศรษฐี
TTITLE8=ใจหล่นใต้ต้นสะเดา
TTITLE9=ระวังคนเลี้ยงข้าว
EXTD=
EXTT0=
EXTT1=
EXTT2=
EXTT3=
EXTT4=
EXTT5=
EXTT6=
EXTT7=
EXTT8=
EXTT9=
PLAYORDER=
